# xmcd
#
# Track frame offsets: 
#        150
#        18135
#        34769
#        52782
#        70807
#        89562
#        104385
#        124293
#        147635
#        168769
#
# Disc length: 2376 seconds
#
# Revision: 0
# Processed by: cddbd v1.5.2PL0 Copyright (c) Steve Scherf et al.
# Submitted via: ExactAudioCopy v0.99pb5
#
DISCID=8209460a
DTITLE=Short, Jon - Bg Shorty
DYEAR=2010
DGENRE=Blues
TTITLE0=Asian Longhorned Beetle
TTITLE1=Short Time Man
TTITLE2=Tuesday Night Evil
TTITLE3=Tip Your Cart
TTITLE4=3 Hours To Sleep part 1
TTITLE5=3 Leg'd Dog
TTITLE6=Dirty Stay-out
TTITLE7=3 Hours To Sleep part 2
TTITLE8=The Train I Ride
TTITLE9=The Grey Goose
EXTD=
EXTT0=
EXTT1=
EXTT2=
EXTT3=
EXTT4=
EXTT5=
EXTT6=
EXTT7=
EXTT8=
EXTT9=
PLAYORDER=
